<?xml version="1.0" encoding="UTF-8"?>
<svg width="32px" height="32px" viewBox="0 0 24 24" version="1.1" xmlns="http://www.w3.org/2000/svg">
    <title>Shopping Cart</title>
    <g stroke="none" stroke-width="1" fill="none" fill-rule="evenodd">
        <path d="M7,18 C5.9,18 5.01,18.9 5.01,20 C5.01,21.1 5.9,22 7,22 C8.1,22 9,21.1 9,20 C9,18.9 8.1,18 7,18 Z M17,18 C15.9,18 15.01,18.9 15.01,20 C15.01,21.1 15.9,22 17,22 C18.1,22 19,21.1 19,20 C19,18.9 18.1,18 17,18 Z M7.17,14.75 L7.2,14.63 L8.1,13 L16.55,13 C17.3,13 17.96,12.59 18.3,11.97 L22.1,5.5 C22.23,5.26 22.31,4.99 22.31,4.71 C22.31,3.77 21.55,3 20.61,3 L6.21,3 L5.27,1 L1,1 L1,3 L3,3 L6.6,10.13 L5.25,12.54 C5.09,12.82 5,13.11 5,13.42 C5,14.36 5.76,15.13 6.7,15.13 L20,15.13 L20,13.13 L7.17,13.13 L7.17,14.75 Z" fill="#1976D2" fill-rule="nonzero"/>
    </g>
</svg> 